# xmcd
#
# Track frame offsets:
# 150
# 41640
# 65502
# 101882
# 127522
# 176235
#
# Disc length: 2778 seconds
#
#
# Revision: 0
# Processed by: cddbd v1.5.1PL2 Copyright (c) Steve Scherf et al.
# Submitted via: FreeRIP 2.944 
#
DISCID=4e0ad806
DTITLE=Canned Heat - Working Blues
DYEAR=1969
DGENRE=Blues
TTITLE0=When Things Go Wrong
TTITLE1=Devil Got My Woman
TTITLE2=I Wish You Would
TTITLE3=Dust My Broom
TTITLE4=Sweet Sixteen
TTITLE5=Bull Frog Blues
EXTD=
EXTT0=
EXTT1=
EXTT2=
EXTT3=
EXTT4=
EXTT5=
PLAYORDER=
